<mxfile host="app.diagrams.net" modified="2024-05-13T08:38:19.824Z" agent="Mozilla/5.0 (Windows NT 10.0; Win64; x64) AppleWebKit/537.36 (KHTML, like Gecko) Chrome/124.0.0.0 Safari/537.36" etag="yjv7GcDLdmZPGShg6ta1" version="24.4.0" type="github">
  <diagram name="Page-1" id="NmPxgebF_m96f-5x67oO">
    <mxGraphModel dx="1228" dy="1417" grid="1" gridSize="10" guides="1" tooltips="1" connect="1" arrows="1" fold="1" page="1" pageScale="1" pageWidth="827" pageHeight="1169" math="0" shadow="1">
      <root>
        <mxCell id="0" />
        <mxCell id="1" parent="0" />
      </root>
    </mxGraphModel>
  </diagram>
</mxfile>
